<?xml version="1.0" ?>
<!-- Uploaded to: SVG Repo, www.svgrepo.com, Generator: SVG Repo Mixer Tools -->
<svg fill="#000000" width="800px" height="800px" viewBox="0 0 64 64" version="1.1" xml:space="preserve" xmlns="http://www.w3.org/2000/svg" xmlns:xlink="http://www.w3.org/1999/xlink">
<g id="smart_lamp"/>
<g id="e-wallet"/>
<g id="virtual_reality"/>
<g id="payment"/>
<g id="cloud_storage"/>
<g id="security_camera">
<g>
<path d="M32,49c2.8,0,5-2.2,5-5s-2.2-5-5-5s-5,2.2-5,5S29.2,49,32,49z M32,41c1.7,0,3,1.3,3,3s-1.3,3-3,3s-3-1.3-3-3    S30.3,41,32,41z"/>
<path d="M25.6,48c-0.5,0.3-0.6,0.9-0.3,1.4c1.5,2.3,4,3.6,6.7,3.6s5.2-1.3,6.7-3.6c0.3-0.5,0.2-1.1-0.3-1.4s-1.1-0.2-1.4,0.3    C35.9,50,34,51,32,51s-3.9-1-5-2.7C26.7,47.8,26.1,47.7,25.6,48z"/>
<path d="M24.1,51.1c-0.3-0.4-1-0.5-1.4-0.2c-0.4,0.3-0.5,1-0.2,1.4c2.3,3,5.7,4.7,9.5,4.7s7.2-1.7,9.5-4.7    c0.3-0.4,0.3-1.1-0.2-1.4c-0.4-0.3-1.1-0.3-1.4,0.2C38,53.6,35.1,55,32,55S26,53.6,24.1,51.1z"/>
<path d="M42.8,53.9C40.1,57.1,36.2,59,32,59s-8.1-1.9-10.8-5.1c-0.4-0.4-1-0.5-1.4-0.1c-0.4,0.4-0.5,1-0.1,1.4    C22.7,58.9,27.2,61,32,61s9.3-2.1,12.3-5.8c0.4-0.4,0.3-1.1-0.1-1.4C43.8,53.4,43.1,53.5,42.8,53.9z"/>
<path d="M54,3H10C9.4,3,9,3.4,9,4v2c0,2.8,2.2,5,5,5v8c0,2.8,0.6,5.4,1.8,7.7c0,0.1,0.1,0.3,0.2,0.4C18.9,33,25,37,32,37    c7,0,13.1-4,16.1-9.9c0.1-0.1,0.2-0.2,0.2-0.4c1.1-2.3,1.8-4.9,1.8-7.7v-8c2.8,0,5-2.2,5-5V4C55,3.4,54.6,3,54,3z M32,35    c-6.1,0-11.4-3.4-14.1-8.5C21.1,21.8,26.3,19,32,19c5.7,0,10.9,2.8,14.1,7.5C43.4,31.6,38.1,35,32,35z M48,19c0,1.9-0.4,3.7-1,5.4    C43.5,19.7,38,17,32,17s-11.5,2.7-15,7.4c-0.6-1.7-1-3.5-1-5.4v-8h32V19z M53,6c0,1.7-1.3,3-3,3h-1H15h-1c-1.7,0-3-1.3-3-3V5h42V6    z"/>
<path d="M32,22c-2.8,0-5,2.2-5,5s2.2,5,5,5s5-2.2,5-5S34.8,22,32,22z M32,30c-1.7,0-3-1.3-3-3s1.3-3,3-3s3,1.3,3,3S33.7,30,32,30z    "/>
</g>
</g>
<g id="smart_home"/>
<g id="connection"/>
<g id="game"/>
<g id="drone"/>
<g id="smart_car"/>
<g id="camera"/>
<g id="online_business"/>
<g id="smartwatch"/>
<g id="online_shopping"/>
<g id="smart_Television"/>
<g id="security"/>
<g id="communication"/>
<g id="remote_control"/>
<g id="satelite_dish"/>
</svg>